# xmcd
#
# Track frame offsets: 
#        150
#        14539
#        32150
#        59235
#        80775
#        101460
#        134354
#        157422
#        175234
#        205118
#        226689
#        259277
#
# Disc length: 3996 seconds
#
# Revision: 0
# Processed by: cddbd v1.5.2PL0 Copyright (c) Steve Scherf et al.
# Submitted via: ExactAudioCopy v1.3
#
DISCID=ac0f9a0c
DTITLE=Fred Chapellier - Electric Communion [Disk 1]
DYEAR=2014
DGENRE=Blues Rock
TTITLE0=Night Work
TTITLE1=He's Walking
TTITLE2=Living In A Dream
TTITLE3=Cold As Ice
TTITLE4=Sweet Soul Music
TTITLE5=As The Years Go Passing By
TTITLE6=B Shuffle
TTITLE7=I Loved Another Woman
TTITLE8=Gary's Gone
TTITLE9=Can't You See What You're Doing To Me
TTITLE10=Under The Influence
TTITLE11=Blues For Roy
EXTD=
EXTT0=
EXTT1=
EXTT2=
EXTT3=
EXTT4=
EXTT5=
EXTT6=
EXTT7=
EXTT8=
EXTT9=
EXTT10=
EXTT11=
PLAYORDER=
